<?xml version="1.0" encoding="UTF-8"?>
<svg width="205px" height="50px" viewBox="20 20 205 50" version="1.1" xmlns="http://www.w3.org/2000/svg" xmlns:xlink="http://www.w3.org/1999/xlink">
    <title>logo_recruit_minimal</title>
    <g id="Page-1" stroke="none" stroke-width="1" fill="none" fill-rule="evenodd">
        <g id="Artboard" transform="translate(-58.000000, -190.000000)">
            <g id="logo_recruit_minimal" transform="translate(58.000000, 190.000000)">
                <g id="mark" transform="translate(21.000000, 26.000000)">
                    <path d="M20,0 C21.6219422,0 23.1987902,0.193070766 24.7088154,0.557483506 C22.3342159,1.77496897 20.3431777,4.5300832 18.282359,8.99923155 L18.0826919,9.43708648 L16.9991701,12.3184461 C16.3102068,14.3031402 15.7492713,16.4463846 15.3316341,18.5839642 L15.1817671,19.3849703 L13.1229577,14.7567577 L8.75170453,16.7023082 C12.697927,21.7425641 15.7154504,27.6439391 17.4767937,34.2173617 C17.885369,35.7421857 18.2173251,37.2694891 18.4750218,38.7951845 L18.629899,39.7762084 L18.7115451,39.9588404 L18.7115451,39.9588404 C8.26630429,39.295039 0,30.6128689 0,20 C0,8.954305 8.954305,0 20,0 Z" id="shape" fill="#6598CB"></path>
                    <path d="M31.5517947,3.67146734 C36.6636367,7.29447242 40,13.2576115 40,20 C40,29.6373689 33.1834794,37.6826541 24.1087593,39.5775343 L23.5432322,38.2763121 L19.896752,29.6053503 C19.5705755,28.8189893 19.2921306,28.0022121 19.0658046,27.1575518 C16.4286382,17.3155128 21.812506,7.21390191 31.2103177,3.79320343 L31.5517947,3.67146734 Z" id="shape" fill="#B9B9B9"></path>
                    <path d="M24.7079082,0.557264577 C27.205175,1.1598031 29.5196979,2.23096174 31.5531992,3.67246286 C21.9438465,6.96963257 16.3967582,17.196535 19.0658046,27.1575518 C19.2915054,27.9998788 19.5690375,28.8144765 19.89405,29.5988328 L19.8993285,29.6151981 L23.5432322,38.2763121 L24.1059905,39.5781123 C22.7807411,39.8546391 21.407346,40 20,40 C19.5671739,40 19.1375591,39.986251 18.7115684,39.9591658 L18.629899,39.7762084 L18.6207476,39.710376 C18.3470427,37.8805097 17.9670841,36.0471505 17.4767937,34.2173617 C15.7155505,27.6443125 12.6982698,21.7432346 8.75237705,16.7031672 L13.1229577,14.7567577 L15.1817671,19.3849703 C15.6110379,16.984673 16.2240864,14.551227 16.9991701,12.3184461 L18.0826919,9.43708648 C18.1922554,9.19418133 18.3015815,8.95611365 18.4107377,8.7228571 L18.7377642,8.03749458 L19.0641766,7.38084103 L19.39038,6.75273852 C21.0399531,3.64871136 22.697053,1.63358774 24.5974074,0.615505266 L24.7079082,0.557264577 Z" id="letter" fill="#FFFFFF" fill-rule="nonzero"></path>
                </g>
                <g id="type" transform="translate(69.000000, 20.000000)" fill="#6598CB" fill-rule="nonzero">
                    <path d="M7.98341109,40 L7.98341109,22.4486781 C7.98341109,21.4671678 8.34974944,20.8888889 9.08242613,19.7138414 C9.81510282,18.5387938 10.8657335,17.6125799 12.2343183,16.9351996 C13.4508381,16.2439952 14.9783999,15.8983929 16.8170036,15.8983929 C17.660273,15.8983929 18.5657508,16.0158977 19.533437,16.2509072 L18.8491446,12.1658891 C18.5173665,12.0552964 17.7017453,12 16.402281,12 C14.7157422,12 13.3264213,12.2280975 12.2343183,12.6842924 C11.2113358,13.0437187 10.4026266,13.4238811 9.80819077,13.8247797 C9.21375497,14.2256782 8.76792811,14.6092967 8.47071021,14.975635 C8.33861337,15.1384521 8.23314069,15.2678182 8.15429219,15.3637335 L8.05598756,15.4825183 C8.01681931,15.5293666 7.99262715,15.5573988 7.98341109,15.5666148 L7.98341109,12 L0,12 L0,40 L7.98341109,40 Z M35.3472687,40 C37.890901,40 39.9852504,39.7615345 41.6303169,39.2846034 C43.2753834,38.8076724 44.0979167,38.4240539 44.0979167,38.1337481 L45.3006124,33.2192846 C44.8029452,33.7169518 43.7315784,34.3355797 42.0865118,35.0751685 C40.4414453,35.8147572 38.1673828,36.1845516 35.2643242,36.1845516 C32.886581,36.0739589 31.2484265,34.8781752 30.3498607,32.5972006 C29.451295,30.316226 28.7713841,28.7109902 28.6469673,27.2179886 L46.0653188,27.2179886 C46.092967,27.0244514 46.1275272,26.6823052 46.1689995,26.19155 C46.2104717,25.7007949 46.2312079,25.1029031 46.2312079,24.3978745 C46.2312079,20.6515466 45.463971,18.1793675 43.9294971,15.9813375 C42.1323656,13.3271125 38.7109037,12 33.6651115,12 C29.4625886,12.0414723 26.2726801,13.2787282 24.0953862,15.7117678 C21.9180923,18.1448073 20.9642302,21.1923276 20.9642302,26.4178331 C21.0057024,30.9797823 22.0173914,34.2941075 23.9320276,36.3608087 C25.8466639,38.4275099 28.8637712,39.6129255 32.9833496,39.9170555 C33.5501372,39.9723518 34.3381102,40 35.3472687,40 Z M28.6469673,23.4647486 C28.6469673,17.9904095 30.5754277,15.6910316 34.4323484,15.5666148 C38.7869362,15.5666148 40.9642302,17.8659927 40.9642302,23.4647486 L28.6469673,23.4647486 Z M62.2498704,40 C64.7243822,39.9308796 66.7599793,39.7304303 68.3566615,39.3986522 C69.9533437,39.066874 70.7516848,38.8456886 70.7516848,38.7350959 L71.249352,34.0487299 C71.249352,34.1316744 70.8449974,34.3632279 70.0362882,34.7433904 C69.2275791,35.1235528 68.1596682,35.472611 66.8325557,35.7905651 C65.5054432,36.1085191 63.9225851,36.2674961 62.0839813,36.2674961 C59.7753586,36.1016071 58.2512528,34.9783999 57.5116641,32.8978745 C56.7720753,30.8173492 56.402281,27.8693624 56.402281,24.5515811 C56.402281,21.8005875 56.8515639,20.2253326 57.7501296,18.4282011 C58.6486954,16.6310696 60.4596509,15.7325039 63.1829964,15.7325039 C65.2566096,15.7739762 66.9777087,15.9882495 68.3462934,16.375324 C69.7148782,16.7623985 70.6549162,17.0872646 71.1664075,17.3499222 L70.316226,13.2649041 C69.6250216,13.0713669 68.4810783,12.8225333 66.8843961,12.5184033 C65.2877138,12.2142734 63.4871263,12.0414723 61.4826335,12 C58.3307413,12 55.8113012,12.4803871 53.9243131,13.4411612 C52.037325,14.4019354 50.6618282,15.8500086 49.7978227,17.785381 C48.9338172,19.7207534 48.4465181,21.5102817 48.3359253,24.5515811 C48.3359253,28.3670295 48.7817522,31.6191464 49.6734059,33.8102644 C50.5650596,36.0013824 52.0200449,37.5807845 54.0383618,38.5484707 C56.0566788,39.5161569 58.7938483,40 62.2498704,40 Z M81.7003629,40 L81.7003629,22.4486781 C81.7003629,21.4671678 82.0667012,20.8888889 82.7993779,19.7138414 C83.5320546,18.5387938 84.5826853,17.6125799 85.9512701,16.9351996 C87.1677899,16.2439952 88.6953517,15.8983929 90.5339554,15.8983929 C91.3772248,15.8983929 92.2827026,16.0158977 93.2503888,16.2509072 L92.5660964,12.1658891 C92.2343183,12.0552964 91.4186971,12 90.1192328,12 C88.432694,12 87.0433731,12.2280975 85.9512701,12.6842924 C84.9282875,13.0437187 84.1195784,13.4238811 83.5251426,13.8247797 C82.9307068,14.2256782 82.4848799,14.6092967 82.187662,14.975635 C82.0555652,15.1384521 81.9500925,15.2678182 81.871244,15.3637335 L81.7729393,15.4825183 C81.7337711,15.5293666 81.7095789,15.5573988 81.7003629,15.5666148 L81.7003629,12 L73.7169518,12 L73.7169518,40 L81.7003629,40 Z M103.017107,40.0829445 C106.182824,40.0829445 108.664247,39.7442544 110.461379,39.066874 C112.25851,38.3894937 113.426646,37.8227061 113.965785,37.3665111 L113.965785,40 L119.917055,40 L119.917055,12 L113.965785,12 L113.965785,32.2654225 C113.786072,32.8875065 113.246933,33.6685675 112.348367,34.6086055 C111.449801,35.5486435 109.949888,36.0463107 107.848626,36.1016071 C106.57681,36.1016071 105.508899,35.7145326 104.644894,34.9403836 C103.780888,34.1662347 103.348885,33.1916364 103.348885,32.0165889 L103.348885,12 L95.3654743,12 L95.3654743,32.2654225 C95.3654743,34.7122862 96.0532227,36.6061863 97.4287195,37.9471229 C98.8042163,39.2880594 100.667012,40 103.017107,40.0829445 Z M131.63297,40 L131.63297,12 L123.732504,12 L123.732504,40 L131.63297,40 Z M149.901503,40 C150.454467,40 150.952134,39.9861759 151.394505,39.9585277 C151.823052,39.9447036 152.12027,39.9308796 152.286159,39.9170555 L152.286159,35.9149819 C150.36461,35.9149819 149.058234,35.6385001 148.36703,35.0855365 C147.399343,34.3943321 146.9155,33.2331087 146.9155,31.6018663 L146.9155,15.5666148 L152.286159,15.5666148 L152.286159,12 L146.9155,12 L146.9155,0.582944531 L138.932089,0.582944531 L138.932089,12 L133.582167,12 L133.582167,15.5666148 L138.932089,15.5666148 L138.932089,31.249352 C138.932089,34.4841887 139.927424,36.7789874 141.918092,38.1337481 C143.604631,39.377916 146.265768,40 149.901503,40 Z" id="recruit"></path>
                    <path d="M127.572665,10 C128.836143,10 129.823235,9.6042618 130.533941,8.81278539 C131.244647,8.02130898 131.6,7.07153729 131.6,5.96347032 C131.6,4.87975647 131.250721,3.94824962 130.552164,3.16894977 C129.853607,2.38964992 128.884738,2 127.645558,2 C126.38208,2 125.391951,2.40487062 124.675171,3.21461187 C123.95839,4.02435312 123.6,4.96499239 123.6,6.03652968 C123.6,7.08371385 123.95839,8.00608828 124.675171,8.80365297 C125.391951,9.60121766 126.357783,10 127.572665,10 Z" id="Path"></path>
                </g>
            </g>
        </g>
    </g>
</svg>